# xmcd
#
# Track frame offsets:
#	150
#	16740
#	32038
#	53026
#	69458
#	83225
#	98507
#	122945
#	134697
#	149450
#	166192
#	180833
#	197536
#
# Disc length: 2863 seconds
#
# Revision: 1
# Processed by: cddbd v1.5.2PL0 Copyright (c) Steve Scherf et al.
# Submitted via: audiograbber 1.83.01
#
DISCID=a60b2d0d
DTITLE=Various Artist - CDX Volume 557 (October 22, 2012)
DYEAR=2012
DGENRE=Country
TTITLE0=Josh Turner - Find Me A Baby [Radio Edit]
TTITLE1=Hunter Hayes - Somebody's Heartbreak 
TTITLE2=Brad Paisley - Southern Comfort Zone  [Single Edit]
TTITLE3=Jana Kramer - Whiskey
TTITLE4=Kathy Mattea - Hello, My Name Is Coal
TTITLE5=Sarah Darling - Home To Me 
TTITLE6=Joey and Rory - Josephine
TTITLE7=Smokey River Boys - All Pure Country 
TTITLE8=Josie Brandon - Crazy Week
TTITLE9=Tyler Stephens - Freedom Don't Come Free
TTITLE10=Cadillac Black - Get Your Buzz On
TTITLE11=Outbound Road - Home To Me 
TTITLE12=Mann Sisters - Halloween Night
EXTD=
EXTT0=
EXTT1=
EXTT2=
EXTT3=
EXTT4=
EXTT5=
EXTT6=
EXTT7=
EXTT8=
EXTT9=
EXTT10=
EXTT11=
EXTT12=
PLAYORDER=
